<svg width="16" height="16" viewBox="0 0 16 16" fill="none" xmlns="http://www.w3.org/2000/svg">
<path fill-rule="evenodd" clip-rule="evenodd" d="M5.52518 13.6568L8.17683 11.0052L8.88394 11.7123L6.23229 14.3639C4.96308 15.6331 2.9053 15.6331 1.63609 14.3639C0.366889 13.0947 0.366889 11.0369 1.63609 9.76772L4.28774 7.11607L4.99485 7.82317L2.3432 10.4748C1.46452 11.3535 1.46452 12.7781 2.3432 13.6568C3.22188 14.5355 4.6465 14.5355 5.52518 13.6568ZM11.7124 8.88383L11.0053 8.17673L13.6569 5.52508C14.5356 4.6464 14.5356 3.22177 13.6569 2.34309C12.7782 1.46441 11.3536 1.46442 10.4749 2.34309L7.82328 4.99475L7.11617 4.28764L9.76782 1.63599C11.037 0.366784 13.0948 0.366784 14.364 1.63599C15.6332 2.90519 15.6332 4.96298 14.364 6.23218L11.7124 8.88383ZM6.26175 10.5043L10.5044 6.26164L9.73836 5.49561L5.49572 9.73825L6.26175 10.5043Z" fill="black" fill-opacity="0.8"/>
</svg>
