<svg width="16" height="16" viewBox="0 0 16 16" fill="none" xmlns="http://www.w3.org/2000/svg">
<path d="M2.58507 12.4999L3.46307 10.0279H6.99007L7.86807 12.4999H8.97607L5.77207 3.77295H4.68207L1.47607 12.4999H2.58407H2.58507ZM3.79507 9.08995L5.19307 5.15295H5.26107L6.65907 9.09095H3.79507V9.08995ZM9.87507 13.9999H13.8131V13.2499H11.2051V13.2159L12.3131 12.2439C13.2511 11.426 13.6601 10.9489 13.6601 10.2499C13.6601 9.36395 12.8931 8.69895 11.7681 8.69895C10.6431 8.69895 9.84207 9.34695 9.84207 10.3189H10.7281C10.7281 9.78895 11.1381 9.43195 11.7511 9.43195C12.3311 9.43195 12.7741 9.75595 12.7741 10.2669C12.7741 10.7099 12.4671 11.0339 11.8701 11.5629L9.87607 13.3349V13.9999H9.87507Z" fill="black" fill-opacity="0.8"/>
</svg>
