<svg width="16" height="16" viewBox="0 0 16 16" fill="none" xmlns="http://www.w3.org/2000/svg">
<path d="M2.93493 12.4999L3.81293 10.0279H7.33993L8.21793 12.4999H9.32593L6.12193 3.77294H5.03193L1.82593 12.4999H2.93393H2.93493ZM4.14493 9.08994L5.54293 5.15294H5.61093L7.00893 9.09094H4.14493V9.08994ZM9.62493 8.13594H13.5629V7.38594H10.9549V7.35194L12.0629 6.38094C13.0009 5.56194 13.4099 5.08494 13.4099 4.38594C13.4099 3.49994 12.6429 2.83594 11.5179 2.83594C10.3929 2.83594 9.59193 3.48294 9.59193 4.45494H10.4779C10.4779 3.92594 10.8879 3.56794 11.5009 3.56794C12.0809 3.56794 12.5239 3.89194 12.5239 4.40294C12.5239 4.84694 12.2169 5.16994 11.6199 5.69894L9.62593 7.47194V8.13594H9.62493Z" fill="black" fill-opacity="0.8"/>
</svg>
