<svg width="16" height="16" viewBox="0 0 16 16" fill="none" xmlns="http://www.w3.org/2000/svg">
<path d="M1.7269 12.4998L2.6049 10.0278H6.1339L7.0099 12.4998H8.1199L4.9149 3.77281H3.8239L0.618896 12.4998H1.7269ZM2.9369 9.08981L4.3349 5.15281H4.4029L5.8009 9.09081H2.9369V9.08981ZM9.3249 12.4998H14.8309V11.5618H10.7739V11.4938L12.7339 9.39781C14.2339 7.79081 14.6779 7.04081 14.6779 6.07381C14.6779 4.72681 13.5869 3.65381 12.0529 3.65381C10.5229 3.65381 9.3589 4.69381 9.3589 6.22681H10.3649C10.3649 5.23381 11.0079 4.57381 12.0179 4.57381C12.9639 4.57381 13.6879 5.15381 13.6879 6.07381C13.6879 6.87881 13.2159 7.47581 12.2059 8.57981L9.3259 11.7328V12.4998H9.3249Z" fill="black" fill-opacity="0.8"/>
</svg>
