<svg width="16" height="16" viewBox="0 0 16 16" fill="none" xmlns="http://www.w3.org/2000/svg">
<path d="M13.476 7.52493H14.6C14.355 6.10793 13.144 5.12793 11.575 5.12793C9.69305 5.12793 8.31905 6.54493 8.31905 8.86793C8.31905 11.1679 9.65405 12.5989 11.625 12.5989C13.389 12.5989 14.65 11.4419 14.65 9.60593V8.77793H11.792V9.68393H13.588C13.564 10.8559 12.789 11.5979 11.625 11.5979C10.343 11.5979 9.40905 10.6279 9.40905 8.85993C9.40905 7.09893 10.349 6.12993 11.582 6.12993C12.548 6.12993 13.202 6.66193 13.475 7.52493H13.476ZM2.41205 12.4999L3.08005 10.5749H5.92005L6.58505 12.4999H7.75005L5.13305 5.22693H3.86505L1.24805 12.4999H2.41205ZM3.40005 9.65193L4.47205 6.54793H4.52905L5.60005 9.65193H3.40005Z" fill="black" fill-opacity="0.8"/>
</svg>
