<svg width="16" height="16" viewBox="0 0 16 16" fill="none" xmlns="http://www.w3.org/2000/svg">
<path d="M1.95397 12.4999L2.83197 10.0279H6.35997L7.23797 12.4999H8.34597L5.13997 3.77295H4.04997L0.844971 12.4999H1.95297H1.95397ZM3.16397 9.08995L4.56197 5.15295H4.62997L6.02797 9.09095H3.16397V9.08995ZM12.211 15.0899C13.779 15.0899 15.041 14.3749 15.041 12.6879V5.95495H14.069V6.99495H13.967C13.745 6.65295 13.336 5.86895 12.057 5.86895C10.404 5.86895 9.26197 7.18195 9.26197 9.19295C9.26197 11.2389 10.455 12.3979 12.04 12.3979C13.319 12.3979 13.728 11.6479 13.95 11.2899H14.035V12.6199C14.035 13.7099 13.268 14.2049 12.211 14.2049C11.022 14.2049 10.604 13.5779 10.336 13.2149L9.53497 13.7779C9.94397 14.4639 10.749 15.0909 12.211 15.0909V15.0899ZM12.177 11.4939C10.916 11.4939 10.267 10.5399 10.267 9.17595C10.267 7.84595 10.898 6.77295 12.177 6.77295C13.404 6.77295 14.052 7.76095 14.052 9.17595C14.052 10.6249 13.387 11.4939 12.177 11.4939Z" fill="black" fill-opacity="0.8"/>
</svg>
