<svg width="16" height="16" viewBox="0 0 16 16" fill="none" xmlns="http://www.w3.org/2000/svg">
<path d="M1.68066 12L2.48535 9.73438H5.71973L6.52441 12H7.54004L4.60254 4H3.60254L0.665039 12H1.68066ZM2.79004 8.875L4.07129 5.26562H4.13379L5.41504 8.875H2.79004Z" fill="black" fill-opacity="0.8"/>
<path d="M13.8789 6.5H14.8789C14.582 4.95313 13.2852 3.89062 11.5977 3.89062C9.54688 3.89062 8.09766 5.46875 8.09766 8C8.09766 10.5312 9.53516 12.1094 11.6602 12.1094C13.5664 12.1094 14.9258 10.8398 14.9258 8.85938V8H11.8789V8.85938H13.9883C13.9609 10.2969 13.0156 11.2031 11.6602 11.2031C10.1758 11.2031 9.03516 10.0781 9.03516 8C9.03516 5.92188 10.1758 4.79688 11.5977 4.79688C12.7539 4.79688 13.5391 5.44922 13.8789 6.5Z" fill="black" fill-opacity="0.8"/>
</svg>
