<svg width="16" height="16" viewBox="0 0 16 16" fill="none" xmlns="http://www.w3.org/2000/svg">
<path d="M3.8099 12.6531C4.9519 12.6531 5.5479 12.0401 5.7529 11.6131H5.8029V12.5001H6.8099V8.18714C6.8099 6.10814 5.2249 5.86914 4.3899 5.86914C3.4009 5.86914 2.2759 6.21014 1.7649 7.40314L2.7199 7.74414C2.9409 7.26714 3.4649 6.75614 4.4239 6.75614C5.3489 6.75614 5.8039 7.24614 5.8039 8.08614V8.11914C5.8039 8.60514 5.3099 8.56314 4.1169 8.71614C2.9029 8.87414 1.5769 9.14214 1.5769 10.6421C1.5769 11.9211 2.5669 12.6531 3.8099 12.6531ZM3.9629 11.7501C3.1619 11.7501 2.5829 11.3921 2.5829 10.6931C2.5829 9.92614 3.2809 9.68814 4.0649 9.58514C4.4909 9.53514 5.6329 9.41514 5.8039 9.21014V10.1301C5.8039 10.9491 5.1559 11.7501 3.9629 11.7501ZM11.2869 15.0901C12.8549 15.0901 14.1169 14.3751 14.1169 12.6881V5.95514H13.1449V6.99514H13.0429C12.8209 6.65314 12.4129 5.86914 11.1329 5.86914C9.47991 5.86914 8.3379 7.18214 8.3379 9.19314C8.3379 11.2391 9.5309 12.3981 11.1169 12.3981C12.3949 12.3981 12.8039 11.6481 13.0259 11.2901H13.1109V12.6201C13.1109 13.7101 12.3439 14.2051 11.2869 14.2051C10.0979 14.2051 9.6809 13.5781 9.4119 13.2151L8.6109 13.7781C9.0209 14.4641 9.8249 15.0911 11.2869 15.0911V15.0901ZM11.2529 11.4941C9.99191 11.4941 9.3429 10.5401 9.3429 9.17614C9.3429 7.84614 9.97491 6.77314 11.2529 6.77314C12.4799 6.77314 13.1279 7.76114 13.1279 9.17614C13.1279 10.6251 12.4629 11.4941 11.2529 11.4941Z" fill="black" fill-opacity="0.8"/>
</svg>
