<svg width="32" height="32" viewBox="0 0 32 32" fill="none" xmlns="http://www.w3.org/2000/svg">
<path fill-rule="evenodd" clip-rule="evenodd" d="M13 12H19C19.552 12 20 12.448 20 13V19C20 19.552 19.552 20 19 20H13C12.448 20 12 19.552 12 19V13C12 12.448 12.448 12 13 12ZM11 13C11 11.895 11.895 11 13 11H19C20.105 11 21 11.895 21 13V19C21 20.105 20.105 21 19 21H13C11.895 21 11 20.105 11 19V13ZM16 17C15.448 17 15 16.552 15 16C15 15.448 15.448 15 16 15C16.552 15 17 15.448 17 16C17 16.552 16.552 17 16 17ZM14 16C14 14.895 14.895 14 16 14C17.105 14 18 14.895 18 16C18 17.105 17.105 18 16 18C14.895 18 14 17.105 14 16Z" fill="black" fill-opacity="0.8"/>
</svg>
