<svg width="32" height="32" viewBox="0 0 32 32" fill="none" xmlns="http://www.w3.org/2000/svg">
<path fill-rule="evenodd" clip-rule="evenodd" d="M13.646 14.3538C13.842 14.5488 14.158 14.5488 14.354 14.3538C14.549 14.1578 14.549 13.8418 14.354 13.6458L12.354 11.6458C12.158 11.4508 11.842 11.4508 11.646 11.6458C11.451 11.8418 11.451 12.1578 11.646 12.3538L13.646 14.3538ZM18.354 14.3538C18.158 14.5488 17.842 14.5488 17.646 14.3538C17.451 14.1578 17.451 13.8418 17.646 13.6458L19.646 11.6458C19.842 11.4508 20.158 11.4508 20.354 11.6458C20.549 11.8418 20.549 12.1578 20.354 12.3538L18.354 14.3538ZM17.646 17.6458C17.842 17.4508 18.158 17.4508 18.354 17.6458L20.354 19.6458C20.549 19.8418 20.549 20.1578 20.354 20.3538C20.158 20.5488 19.842 20.5488 19.646 20.3538L17.646 18.3538C17.451 18.1578 17.451 17.8418 17.646 17.6458ZM13.646 17.6458C13.842 17.4508 14.158 17.4508 14.354 17.6458C14.549 17.8418 14.549 18.1578 14.354 18.3538L12.354 20.3538C12.158 20.5488 11.842 20.5488 11.646 20.3538C11.451 20.1578 11.451 19.8418 11.646 19.6458L13.646 17.6458Z" fill="black" fill-opacity="0.8"/>
</svg>
