<svg width="32" height="32" viewBox="0 0 32 32" fill="none" xmlns="http://www.w3.org/2000/svg">
<path fill-rule="evenodd" clip-rule="evenodd" d="M16 23C19.866 23 23 19.866 23 16C23 12.134 19.866 9 16 9C12.134 9 9 12.134 9 16C9 19.866 12.134 23 16 23ZM16 24C20.4183 24 24 20.4183 24 16C24 11.5817 20.4183 8 16 8C11.5817 8 8 11.5817 8 16C8 20.4183 11.5817 24 16 24Z" fill="black" fill-opacity="0.8"/>
<path fill-rule="evenodd" clip-rule="evenodd" d="M16 11.8999L15.6465 12.2535L12.6465 15.2535L13.3536 15.9606L15.5 13.8141V20.107H16.5V13.8141L18.6465 15.9606L19.3536 15.2535L16.3536 12.2535L16 11.8999Z" fill="black" fill-opacity="0.8"/>
</svg>
