<svg width="32" height="32" viewBox="0 0 32 32" fill="none" xmlns="http://www.w3.org/2000/svg">
<path fill-rule="evenodd" clip-rule="evenodd" d="M22.8935 15.9548C22.8935 18.5371 21.6535 20.8298 19.7364 22.2699L20.3326 23.0648C22.491 21.4434 23.8871 18.8621 23.8871 15.9548C23.8871 13.0474 22.491 10.4661 20.3326 8.84473L19.7364 9.63964C21.6535 11.0797 22.8935 13.3724 22.8935 15.9548ZM20.955 15.9549C20.955 19.2438 18.2889 21.91 15 21.91C11.7111 21.91 9.04492 19.2438 9.04492 15.9549C9.04492 12.666 11.7111 9.99985 15 9.99985C18.2889 9.99985 20.955 12.666 20.955 15.9549ZM21.955 15.9549C21.955 19.7961 18.8412 22.91 15 22.91C11.1588 22.91 8.04492 19.7961 8.04492 15.9549C8.04492 12.1137 11.1588 8.99985 15 8.99985C18.8412 8.99985 21.955 12.1137 21.955 15.9549Z" fill="black" fill-opacity="0.8"/>
</svg>
