<svg width="32" height="32" viewBox="0 0 32 32" fill="none" xmlns="http://www.w3.org/2000/svg">
<path fill-rule="evenodd" clip-rule="evenodd" d="M9.10662 15.9552C9.10662 13.3729 10.3466 11.0802 12.2637 9.64013L11.6675 8.84521C9.50914 10.4666 8.11304 13.0479 8.11304 15.9552C8.11304 18.8626 9.50916 21.4439 11.6675 23.0653L12.2637 22.2704C10.3466 20.8303 9.10662 18.5376 9.10662 15.9552ZM22.9552 15.9551C22.9552 19.2439 20.289 21.9101 17.0001 21.9101C13.7112 21.9101 11.045 19.2439 11.045 15.9551C11.045 12.6662 13.7112 10 17.0001 10C20.289 10 22.9552 12.6662 22.9552 15.9551ZM23.9552 15.9551C23.9552 19.7962 20.8413 22.9101 17.0001 22.9101C13.1589 22.9101 10.045 19.7962 10.045 15.9551C10.045 12.1139 13.1589 9 17.0001 9C20.8413 9 23.9552 12.1139 23.9552 15.9551Z" fill="black" fill-opacity="0.8"/>
</svg>
