<svg width="32" height="32" viewBox="0 0 32 32" fill="none" xmlns="http://www.w3.org/2000/svg">
<path fill-rule="evenodd" clip-rule="evenodd" d="M21.955 14.9551C21.955 18.2439 19.2889 20.9101 16 20.9101C12.7111 20.9101 10.0449 18.2439 10.0449 14.9551C10.0449 11.6662 12.7111 9 16 9C19.2889 9 21.955 11.6662 21.955 14.9551ZM22.955 14.9551C22.955 18.7962 19.8412 21.9101 16 21.9101C12.1588 21.9101 9.04492 18.7962 9.04492 14.9551C9.04492 11.1139 12.1588 8 16 8C19.8412 8 22.955 11.1139 22.955 14.9551ZM15.9999 22.8483C13.4176 22.8483 11.1249 21.6083 9.6848 19.6912L8.88989 20.2874C10.5113 22.4458 13.0926 23.8419 15.9999 23.8419C18.9073 23.8419 21.4886 22.4458 23.11 20.2874L22.315 19.6912C20.8749 21.6083 18.5822 22.8483 15.9999 22.8483Z" fill="black" fill-opacity="0.8"/>
</svg>
