<svg width="32" height="32" viewBox="0 0 32 32" fill="none" xmlns="http://www.w3.org/2000/svg">
<path fill-rule="evenodd" clip-rule="evenodd" d="M10.0607 15.6468L16.3533 9.35252L15.646 8.64551L9.3535 14.9398C8.76782 15.5257 8.76792 16.4753 9.35373 17.0611L14.9396 22.6461C15.5254 23.2318 16.4751 23.2318 17.0608 22.646L23.3527 16.354L22.6456 15.6469L16.3537 21.9389C16.1585 22.1341 15.8419 22.1342 15.6466 21.9389L10.0608 16.3539C9.86551 16.1587 9.86548 15.8421 10.0607 15.6468ZM21.5013 9.99958H18.0013V10.9996H20.2942L16.1477 15.146L16.8548 15.8531L21.0013 11.7067V13.9996H22.0013V10.4996V9.99958H21.5013Z" fill="black" fill-opacity="0.8"/>
</svg>
