<svg width="32" height="32" viewBox="0 0 32 32" fill="none" xmlns="http://www.w3.org/2000/svg">
<path fill-rule="evenodd" clip-rule="evenodd" d="M13.5252 21.6568L16.1768 19.0052L16.8839 19.7123L14.2323 22.3639C12.9631 23.6331 10.9053 23.6331 9.63609 22.3639C8.36689 21.0947 8.36689 19.0369 9.63609 17.7677L12.2877 15.1161L12.9949 15.8232L10.3432 18.4748C9.46452 19.3535 9.46452 20.7781 10.3432 21.6568C11.2219 22.5355 12.6465 22.5355 13.5252 21.6568ZM19.7124 16.8838L19.0053 16.1767L21.6569 13.5251C22.5356 12.6464 22.5356 11.2218 21.6569 10.3431C20.7782 9.46441 19.3536 9.46442 18.4749 10.3431L15.8233 12.9947L15.1162 12.2876L17.7678 9.63599C19.037 8.36678 21.0948 8.36678 22.364 9.63599C23.6332 10.9052 23.6332 12.963 22.364 14.2322L19.7124 16.8838ZM14.2617 18.5043L18.5044 14.2616L17.7384 13.4956L13.4957 17.7383L14.2617 18.5043Z" fill="black" fill-opacity="0.8"/>
</svg>
