<svg width="32" height="32" viewBox="0 0 32 32" fill="none" xmlns="http://www.w3.org/2000/svg">
<path fill-rule="evenodd" clip-rule="evenodd" d="M23 16C23 19.866 19.866 23 16 23C12.134 23 9 19.866 9 16C9 12.134 12.134 9 16 9C19.866 9 23 12.134 23 16ZM24 16C24 20.4183 20.4183 24 16 24C11.5817 24 8 20.4183 8 16C8 11.5817 11.5817 8 16 8C20.4183 8 24 11.5817 24 16ZM16 11.5C14.5476 11.5 13.2559 12.1881 12.4331 13.2562L11.6404 12.6464C12.646 11.341 14.2249 10.5 16 10.5C17.7751 10.5 19.354 11.341 20.3596 12.6464L19.5669 13.2562C18.7441 12.1881 17.4524 11.5 16 11.5Z" fill="black" fill-opacity="0.8"/>
</svg>
