<svg width="32" height="32" viewBox="0 0 32 32" fill="none" xmlns="http://www.w3.org/2000/svg">
<path fill-rule="evenodd" clip-rule="evenodd" d="M23 16C23 19.866 19.866 23 16 23C12.134 23 9 19.866 9 16C9 12.134 12.134 9 16 9C19.866 9 23 12.134 23 16ZM24 16C24 20.4183 20.4183 24 16 24C11.5817 24 8 20.4183 8 16C8 11.5817 11.5817 8 16 8C20.4183 8 24 11.5817 24 16ZM19.3535 20.3599L18.7439 19.5673C19.812 18.7445 20.5 17.4527 20.5 16.0003C20.5 14.5478 19.812 13.2561 18.7439 12.4333L19.3535 11.6406C20.6589 12.6463 21.5 14.225 21.5 16.0003C21.5 17.7755 20.6589 19.3543 19.3535 20.3599Z" fill="black" fill-opacity="0.8"/>
</svg>
