<svg width="32" height="32" viewBox="0 0 32 32" fill="none" xmlns="http://www.w3.org/2000/svg">
<path fill-rule="evenodd" clip-rule="evenodd" d="M12 12.0001H9.5C8.11929 12.0001 7 13.1194 7 14.5001C7 15.8808 8.11929 17.0001 9.5 17.0001H12L12 12.0001ZM13 11.9964L13 17.0001H13.6738C15.3383 17.0001 16.9874 17.3198 18.5314 17.9418L20 18.5334V9.77624L19.3548 10.1615C17.4287 11.3117 15.2393 11.943 13 11.9964ZM9.5 11.0001H12.6897C14.8561 11.0001 16.9821 10.4137 18.8421 9.30296L20.2437 8.46602C20.5769 8.267 21 8.50712 21 8.8953V19.2739C21 19.6281 20.6418 19.87 20.3132 19.7377L18.1577 18.8694C16.7325 18.2952 15.2103 18.0001 13.6738 18.0001H13.3286L14.5613 21.6982C14.7771 22.3457 14.2951 23.0144 13.6126 23.0144H12.4415C11.5807 23.0144 10.8164 22.4635 10.5442 21.6468L9.33333 18.0144L9.32719 17.9959C7.47447 17.9059 6 16.3752 6 14.5001C6 12.5671 7.567 11.0001 9.5 11.0001ZM10.3874 18.0144L11.4928 21.3306C11.6289 21.739 12.0111 22.0144 12.4415 22.0144H13.6126L12.2792 18.0144H10.3874Z" fill="black" fill-opacity="0.8"/>
<path fill-rule="evenodd" clip-rule="evenodd" d="M24.5 14C24.5 13.1716 23.8284 12.5 23 12.5V11.5C24.3807 11.5 25.5 12.6193 25.5 14C25.5 15.3807 24.3807 16.5 23 16.5V15.5C23.8284 15.5 24.5 14.8284 24.5 14Z" fill="black" fill-opacity="0.8"/>
</svg>
