<svg width="32" height="32" viewBox="0 0 32 32" fill="none" xmlns="http://www.w3.org/2000/svg">
<path fill-rule="evenodd" clip-rule="evenodd" d="M20.7728 9.14885C21.1633 8.75833 21.7965 8.75833 22.187 9.14885L23.6012 10.5631C23.9918 10.9536 23.9918 11.5868 23.6012 11.9773L22.187 13.3915L19.3586 10.5631L18.6515 11.2702L21.4799 14.0986L13.2087 22.3698L9.67319 23.0769L10.3803 19.5414L20.7728 9.14885ZM9.46073 24.1392L13.7017 23.291L24.3083 12.6844C25.0894 11.9033 25.0894 10.637 24.3083 9.85596L22.8941 8.44174C22.1131 7.66069 20.8467 7.66069 20.0657 8.44174L9.4591 19.0483L8.6109 23.2893L8.39844 24.3516L9.46073 24.1392Z" fill="black" fill-opacity="0.8"/>
</svg>
