<svg width="32" height="32" viewBox="0 0 32 32" fill="none" xmlns="http://www.w3.org/2000/svg">
<path fill-rule="evenodd" clip-rule="evenodd" d="M18.5 13.4999L16.527 8.39205L15.9893 7L15.4556 8.39358L13.5 13.4999H8.22658H6.5L7.90751 14.4999L12.3753 17.6741L10.6439 22.9633L10.1115 24.59L11.494 23.5809L15.9893 20.2999L20.4847 23.5809L21.8672 24.59L21.3347 22.9633L19.6033 17.6741L24.0874 14.4999L25.5 13.4999H23.7692H18.5ZM22.3566 14.4999H18.5H17.8143L17.5672 13.8602L15.9933 9.78563L14.4339 13.8575L14.1878 14.4999H13.5H9.63409L12.9545 16.8589L13.5548 17.2854L13.3257 17.9852L12.0265 21.9543L15.3998 19.4921L15.9893 19.0618L16.5789 19.4921L19.9522 21.9543L18.653 17.9852L18.4235 17.2842L19.0256 16.8579L22.3566 14.4999Z" fill="black" fill-opacity="0.8"/>
</svg>
