<svg width="32" height="32" viewBox="0 0 32 32" fill="none" xmlns="http://www.w3.org/2000/svg">
<path fill-rule="evenodd" clip-rule="evenodd" d="M16.5 9.5C16.5 9.224 16.276 9 16 9C15.724 9 15.5 9.224 15.5 9.5V11.025C12.974 11.275 11 13.407 11 16C11 18.761 13.239 21 16 21C18.761 21 21 18.761 21 16C21 14.8 20.577 13.698 19.872 12.836L20.354 12.354C20.549 12.158 20.549 11.842 20.354 11.646C20.158 11.451 19.842 11.451 19.646 11.646L19.164 12.128C18.424 11.522 17.505 11.124 16.499 11.025L16.5 11V9.5ZM20 16C20 18.21 18.21 20 16 20C13.79 20 12 18.21 12 16C12 13.79 13.79 12 16 12C18.21 12 20 13.79 20 16ZM16 13C16.276 13 16.5 13.224 16.5 13.5V15.134C16.799 15.307 17 15.63 17 16C17 16.552 16.552 17 16 17C15.448 17 15 16.552 15 16C15 15.63 15.201 15.307 15.5 15.134V13.5C15.5 13.224 15.724 13 16 13Z" fill="black" fill-opacity="0.8"/>
</svg>
