<svg width="32" height="32" viewBox="0 0 32 32" fill="none" xmlns="http://www.w3.org/2000/svg">
<path fill-rule="evenodd" clip-rule="evenodd" d="M9.5 8.5C8.67157 8.5 8 9.17157 8 10V11.5V21.5003C8 22.3287 8.67157 23.0003 9.5 23.0003H11V22.0003H9.5C9.22386 22.0003 9 21.7764 9 21.5003V12H14H14.118L14.2236 11.9472L16.118 11L22.5001 11.0007C22.7762 11.0008 23 11.2246 23 11.5007V21.5003C23 21.7764 22.7761 22.0003 22.5 22.0003H21V23.0003H22.5C23.3284 23.0003 24 22.3287 24 21.5003V11.5007C24 10.6724 23.3285 10.0008 22.5002 10.0007L16.1667 10L14.3 8.6L14.1667 8.5H14H9.5ZM18 23.0003V22.0003H14V23.0003H18ZM13.5 11H9V10C9 9.72386 9.22386 9.5 9.5 9.5H13.5H13.8333H14L15.5 10.5L14 11H13.882H13.5ZM13.25 18C12.5596 18 12 18.5596 12 19.25V23.5H13V19.25C13 19.1119 13.1119 19 13.25 19H18.75C18.8881 19 19 19.1119 19 19.25V23.5H20V19.25C20 18.5596 19.4404 18 18.75 18H13.25Z" fill="black" fill-opacity="0.8"/>
</svg>
