<svg width="40" height="40" viewBox="0 0 40 40" fill="none" xmlns="http://www.w3.org/2000/svg">
<path d="M20.7215 15.0687C20.0076 14.4056 19.0512 14.0002 18 14.0002C15.7909 14.0002 14 15.791 14 18.0002C14 18.1114 14.0045 18.2216 14.0135 18.3306C12.8237 18.8896 12 20.0987 12 21.5002C12 22.1564 12.1806 22.7705 12.4948 23.2953L13.2335 22.5566C13.0837 22.2357 13 21.8777 13 21.5002C13 20.5006 13.5866 19.636 14.4387 19.2357L15.0667 18.9407L15.0101 18.2491C15.0034 18.1672 15 18.0842 15 18.0002C15 16.3433 16.3431 15.0002 18 15.0002C18.7743 15.0002 19.481 15.2935 20.0139 15.7763L20.7215 15.0687Z" fill="black" fill-opacity="0.8"/>
<path d="M18.8611 24.0002H25C26.1046 24.0002 27 23.1047 27 22.0002C27 21.1297 26.4434 20.3867 25.6636 20.1126L24.9552 19.8635L24.9969 19.1137C24.9989 19.0762 25 19.0383 25 19.0002C25 18.6697 24.9199 18.3579 24.7779 18.0833L25.508 17.3533C25.819 17.826 26 18.3919 26 19.0002C26 19.0569 25.9984 19.1132 25.9953 19.1692C27.163 19.5797 28 20.6922 28 22.0002C28 23.657 26.6569 25.0002 25 25.0002H17.8611L18.8611 24.0002Z" fill="black" fill-opacity="0.8"/>
<path d="M24.8033 13.9897L25.5104 14.6969L14.1967 26.0106L13.4896 25.3035L24.8033 13.9897Z" fill="black" fill-opacity="0.8"/>
</svg>
