<svg width="40" height="40" viewBox="0 0 40 40" fill="none" xmlns="http://www.w3.org/2000/svg">
<path fill-rule="evenodd" clip-rule="evenodd" d="M17.0142 27.4907L17.3111 27.4313L17.5252 27.2173L25.7678 18.9746L26.4749 18.2675L28.1318 16.6107C28.9129 15.8296 28.9129 14.5633 28.1318 13.7822L26.7176 12.368C25.9365 11.587 24.6702 11.587 23.8892 12.368L22.2323 14.0249L21.5252 14.732L13.2826 22.9746L13.0685 23.1887L13.0091 23.4856L12.302 27.0211L12.0078 28.492L13.4787 28.1978L17.0142 27.4907ZM22.2323 15.4391L13.9897 23.6817L13.495 26.155L13.2826 27.2173L14.3449 27.0048L16.8181 26.5101L25.0607 18.2675L22.2323 15.4391ZM22.9394 14.732L25.7678 17.5604L27.4247 15.9035C27.8152 15.513 27.8152 14.8799 27.4247 14.4893L26.0105 13.0751C25.62 12.6846 24.9868 12.6846 24.5963 13.0751L22.9394 14.732Z" fill="black" fill-opacity="0.8"/>
</svg>
