<svg width="40" height="40" viewBox="0 0 40 40" fill="none" xmlns="http://www.w3.org/2000/svg">
<path fill-rule="evenodd" clip-rule="evenodd" d="M25.5 16C26.3284 16 27 15.3284 27 14.5C27 13.6716 26.3284 13 25.5 13C24.6716 13 24 13.6716 24 14.5C24 15.3284 24.6716 16 25.5 16ZM25.5 17C26.8807 17 28 15.8807 28 14.5C28 13.1193 26.8807 12 25.5 12C24.2905 12 23.2816 12.8589 23.05 14H22.5C17.8056 14 14 17.8056 14 22.5V23.05C12.8589 23.2816 12 24.2905 12 25.5C12 26.8807 13.1193 28 14.5 28C15.8807 28 17 26.8807 17 25.5C17 24.2905 16.1411 23.2816 15 23.05V22.5C15 18.3579 18.3579 15 22.5 15H23.05C23.2816 16.1411 24.2905 17 25.5 17ZM14.5 27C15.3284 27 16 26.3284 16 25.5C16 24.6716 15.3284 24 14.5 24C13.6716 24 13 24.6716 13 25.5C13 26.3284 13.6716 27 14.5 27Z" fill="black" fill-opacity="0.8"/>
</svg>
