<svg width="40" height="40" viewBox="0 0 40 40" fill="none" xmlns="http://www.w3.org/2000/svg">
<path fill-rule="evenodd" clip-rule="evenodd" d="M21.1219 15.6407L21.1104 15.6374L14.4437 13.7366L19.3533 18.6462C19.5491 18.5525 19.7684 18.5 20 18.5C20.8284 18.5 21.5 19.1716 21.5 20C21.5 20.8284 20.8284 21.5 20 21.5C19.1716 21.5 18.5 20.8284 18.5 20C18.5 19.7684 18.5525 19.5491 18.6462 19.3533L13.7425 14.4496L15.5745 20.8403L15.585 20.8768L15.5927 20.914C16.0146 22.9612 17.8287 24.5 20 24.5C20.4945 24.5 20.9685 24.4206 21.411 24.2746L21.9959 24.0817L22.4314 24.5172L24.2782 26.364L26.3995 24.2426L24.5346 22.3777L24.1041 21.9472L24.2888 21.3672C24.4257 20.9373 24.5 20.4783 24.5 20C24.5 17.9074 23.0707 16.1461 21.1335 15.6437L21.1219 15.6407ZM27.1066 23.5355L27.8137 24.2426L27.1066 24.9497L24.9853 27.0711L24.2782 27.7782L23.5711 27.0711L21.7243 25.2243C21.1819 25.4032 20.6023 25.5 20 25.5C17.3448 25.5 15.129 23.6184 14.6133 21.1159L12.3246 13.1324L12 12L13.1329 12.323L21.3846 14.6758C23.7519 15.2896 25.5 17.4407 25.5 20C25.5 20.5825 25.4095 21.1438 25.2417 21.6706L27.1066 23.5355Z" fill="black" fill-opacity="0.8"/>
</svg>
