<svg width="40" height="40" viewBox="0 0 40 40" fill="none" xmlns="http://www.w3.org/2000/svg">
<path fill-rule="evenodd" clip-rule="evenodd" d="M22.5 17.4999L20.527 12.392L19.9893 11L19.4556 12.3936L17.5 17.4999H12.2266H10.5L11.9075 18.4999L16.3753 21.6741L14.6439 26.9633L14.1115 28.59L15.494 27.5809L19.9893 24.2999L24.4847 27.5809L25.8672 28.59L25.3347 26.9633L23.6033 21.6741L28.0874 18.4999L29.5 17.4999H27.7692H22.5ZM26.3566 18.4999H22.5H21.8143L21.5672 17.8602L19.9933 13.7856L18.4339 17.8575L18.1878 18.4999H17.5H13.6341L16.9545 20.8589L17.5548 21.2854L17.3257 21.9852L16.0265 25.9543L19.3998 23.4921L19.9893 23.0618L20.5789 23.4921L23.9522 25.9543L22.653 21.9852L22.4235 21.2842L23.0256 20.8579L26.3566 18.4999Z" fill="black" fill-opacity="0.8"/>
</svg>
