<svg width="40" height="40" viewBox="0 0 40 40" fill="none" xmlns="http://www.w3.org/2000/svg">
<mask id="path-1-outside-1" maskUnits="userSpaceOnUse" x="10.5" y="10" width="18" height="20" fill="black">
<rect fill="white" x="10.5" y="10" width="18" height="20"/>
<path fill-rule="evenodd" clip-rule="evenodd" d="M19.8952 11C19.343 11 18.8952 11.4477 18.8952 12V19H17.8952V14C17.8952 13.4477 17.4475 13 16.8952 13C16.343 13 15.8952 13.4477 15.8952 14V19V22.0448L13.5479 20.3105C12.9993 19.9052 12.2432 19.9989 11.8077 20.5262C11.3554 21.0739 11.4076 21.8949 11.9255 22.3819L16.9305 27.0878C16.9653 27.1205 17.0009 27.1514 17.037 27.1805C17.9541 28.2917 19.342 29 20.8952 29H21.8952C24.6567 29 26.8952 26.7614 26.8952 24L26.8952 20.95L26.8952 19L26.8952 16C26.8952 15.4477 26.4475 15 25.8952 15C25.343 15 24.8952 15.4477 24.8952 16V19H23.8952V13C23.8952 12.4477 23.4475 12 22.8952 12C22.343 12 21.8952 12.4477 21.8952 13V19H20.8952V12C20.8952 11.4477 20.4475 11 19.8952 11Z"/>
</mask>
<path d="M18.8952 19V20H19.8952V19H18.8952ZM17.8952 19H16.8952V20H17.8952V19ZM15.8952 22.0448L15.301 22.8491L16.8952 24.027V22.0448H15.8952ZM13.5479 20.3105L12.9537 21.1148H12.9537L13.5479 20.3105ZM11.8077 20.5262L12.5788 21.163L12.5788 21.163L11.8077 20.5262ZM11.9255 22.3819L12.6106 21.6533H12.6106L11.9255 22.3819ZM16.9305 27.0878L17.6155 26.3593L17.6155 26.3593L16.9305 27.0878ZM17.037 27.1805L17.8083 26.544L17.7432 26.4651L17.6635 26.401L17.037 27.1805ZM26.8952 24H27.8952H26.8952ZM26.8952 20.95L25.8952 20.95V20.95H26.8952ZM26.8952 19L27.8952 19V19L26.8952 19ZM26.8952 16H25.8952V16L26.8952 16ZM24.8952 19V20H25.8952V19H24.8952ZM23.8952 19H22.8952V20H23.8952V19ZM21.8952 19V20H22.8952V19H21.8952ZM20.8952 19H19.8952V20H20.8952V19ZM19.8952 12V12V10C18.7907 10 17.8952 10.8954 17.8952 12H19.8952ZM19.8952 19V12H17.8952V19H19.8952ZM17.8952 20H18.8952V18H17.8952V20ZM16.8952 14V19H18.8952V14H16.8952ZM16.8952 14H18.8952C18.8952 12.8954 17.9998 12 16.8952 12V14ZM16.8952 14V14V12C15.7907 12 14.8952 12.8954 14.8952 14H16.8952ZM16.8952 19V14H14.8952V19H16.8952ZM16.8952 22.0448V19H14.8952V22.0448H16.8952ZM12.9537 21.1148L15.301 22.8491L16.4895 21.2405L14.1422 19.5062L12.9537 21.1148ZM12.5788 21.163C12.6774 21.0436 12.8343 21.0266 12.9537 21.1148L14.1422 19.5062C13.1644 18.7838 11.809 18.9542 11.0367 19.8895L12.5788 21.163ZM12.6106 21.6533C12.4761 21.5269 12.4628 21.3034 12.5788 21.163L11.0367 19.8895C10.248 20.8444 10.339 22.2628 11.2405 23.1104L12.6106 21.6533ZM17.6155 26.3593L12.6106 21.6533L11.2405 23.1104L16.2455 27.8164L17.6155 26.3593ZM17.6635 26.401C17.6476 26.3883 17.6316 26.3744 17.6155 26.3593L16.2455 27.8164C16.299 27.8667 16.3541 27.9146 16.4106 27.96L17.6635 26.401ZM20.8952 28C19.653 28 18.5436 27.4349 17.8083 26.544L16.2658 27.817C17.3647 29.1485 19.0309 30 20.8952 30V28ZM21.8952 28H20.8952V30H21.8952V28ZM25.8952 24C25.8952 26.2091 24.1044 28 21.8952 28V30C25.209 30 27.8952 27.3137 27.8952 24H25.8952ZM25.8952 20.95L25.8952 24H27.8952L27.8952 20.95H25.8952ZM25.8952 19L25.8952 20.95L27.8952 20.95L27.8952 19L25.8952 19ZM25.8952 16L25.8952 19L27.8952 19L27.8952 16L25.8952 16ZM25.8952 16H27.8952C27.8952 14.8954 26.9998 14 25.8952 14V16ZM25.8952 16V16V14C24.7907 14 23.8952 14.8954 23.8952 16H25.8952ZM25.8952 19V16H23.8952V19H25.8952ZM23.8952 20H24.8952V18H23.8952V20ZM22.8952 13V19H24.8952V13H22.8952ZM22.8952 13H24.8952C24.8952 11.8954 23.9998 11 22.8952 11V13ZM22.8952 13V13V11C21.7907 11 20.8952 11.8954 20.8952 13H22.8952ZM22.8952 19V13H20.8952V19H22.8952ZM20.8952 20H21.8952V18H20.8952V20ZM19.8952 12V19H21.8952V12H19.8952ZM19.8952 12H21.8952C21.8952 10.8954 20.9998 10 19.8952 10V12Z" fill="black" fill-opacity="0.8" mask="url(#path-1-outside-1)"/>
</svg>
