<svg width="40" height="40" viewBox="0 0 40 40" fill="none" xmlns="http://www.w3.org/2000/svg">
<path fill-rule="evenodd" clip-rule="evenodd" d="M16.1111 16L13 24H14.073L14.8507 22L18.4566 22L19.2344 24H20.3073L17.1962 16H16.1111ZM18.0677 21L16.6537 17.3639L15.2396 21L18.0677 21Z" fill="black" fill-opacity="0.8"/>
<path d="M23.0625 21.6992H24.1797V21.625C24.1953 20.7266 24.4531 20.3242 25.1172 19.9141C25.8164 19.4922 26.2461 18.8984 26.2461 18.0195C26.2461 16.75 25.2852 15.8906 23.8516 15.8906C22.5352 15.8906 21.4805 16.6602 21.4297 18.0664H22.6172C22.6641 17.2383 23.2539 16.875 23.8516 16.875C24.5156 16.875 25.0547 17.3164 25.0547 18.0078C25.0547 18.5898 24.6914 19 24.2266 19.2891C23.5 19.7344 23.0703 20.1758 23.0625 21.625V21.6992ZM23.6523 24.0742C24.0781 24.0742 24.4336 23.7266 24.4336 23.293C24.4336 22.8672 24.0781 22.5156 23.6523 22.5156C23.2227 22.5156 22.8711 22.8672 22.8711 23.293C22.8711 23.7266 23.2227 24.0742 23.6523 24.0742Z" fill="black" fill-opacity="0.8"/>
</svg>
