<svg width="40" height="40" viewBox="0 0 40 40" fill="none" xmlns="http://www.w3.org/2000/svg">
<path fill-rule="evenodd" clip-rule="evenodd" d="M16.0625 14.9375L16.7696 15.6446L19.2929 18.1679L20 18.875L20.7071 18.1679L23.2304 15.6446L23.9375 14.9375L23.2304 14.2304L20.7071 11.7071L20 11L19.2929 11.7071L16.7696 14.2304L16.0625 14.9375ZM22.5233 14.9375L20 17.4608L17.4767 14.9375L20 12.4142L22.5233 14.9375ZM16.0625 25.0625L16.7696 25.7696L19.2929 28.2929L20 29L20.7071 28.2929L23.2304 25.7696L23.9375 25.0625L23.2304 24.3554L20.7071 21.8321L20 21.125L19.2929 21.8321L16.7696 24.3554L16.0625 25.0625ZM22.5233 25.0625L20 27.5858L17.4767 25.0625L20 22.5392L22.5233 25.0625ZM11.7071 20.7071L11 20L11.7071 19.2929L14.2304 16.7696L14.9375 16.0625L15.6446 16.7696L18.1679 19.2929L18.875 20L18.1679 20.7071L15.6446 23.2304L14.9375 23.9375L14.2304 23.2304L11.7071 20.7071ZM14.9375 22.5233L17.4608 20L14.9375 17.4767L12.4142 20L14.9375 22.5233ZM21.125 20L21.8321 20.7071L24.3554 23.2304L25.0625 23.9375L25.7696 23.2304L28.2929 20.7071L29 20L28.2929 19.2929L25.7696 16.7696L25.0625 16.0625L24.3554 16.7696L21.8321 19.2929L21.125 20ZM27.5858 20L25.0625 22.5233L22.5392 20L25.0625 17.4767L27.5858 20Z" fill="black" fill-opacity="0.8"/>
</svg>
