<svg width="40" height="40" viewBox="0 0 40 40" fill="none" xmlns="http://www.w3.org/2000/svg">
<path fill-rule="evenodd" clip-rule="evenodd" d="M27 20C27 23.866 23.866 27 20 27C19.1457 27 18.3272 26.847 17.5703 26.5668C19.6435 25.1213 21 22.719 21 20C21 17.2809 19.6435 14.8787 17.5704 13.4332C18.3272 13.153 19.1457 13 20 13C23.866 13 27 16.134 27 20ZM16.5 12.8042C17.5572 12.2891 18.7449 12 20 12C24.4183 12 28 15.5817 28 20C28 24.4183 24.4183 28 20 28C15.5817 28 12 24.4183 12 20C12 20 12 20 12 20C12 16.8368 13.8358 14.1025 16.5 12.8042C16.5 12.8042 16.5 12.8042 16.5 12.8042Z" fill="black" fill-opacity="0.8"/>
</svg>
