<svg width="32" height="32" viewBox="0 0 32 32" fill="none" xmlns="http://www.w3.org/2000/svg">
<path fill-rule="evenodd" clip-rule="evenodd" d="M16.0002 9.06194C18.5825 9.06194 20.8752 10.302 22.3153 12.219L23.1102 11.6228C21.4888 9.46446 18.9075 8.06836 16.0002 8.06836C13.0928 8.06836 10.5115 9.46448 8.89014 11.6229L9.68505 12.2191C11.1251 10.302 13.4179 9.06194 16.0002 9.06194ZM21.9551 16.9552C21.9551 20.2441 19.289 22.9102 16.0001 22.9102C12.7112 22.9102 10.045 20.2441 10.045 16.9552C10.045 13.6663 12.7112 11.0001 16.0001 11.0001C19.289 11.0001 21.9551 13.6663 21.9551 16.9552ZM22.9551 16.9552C22.9551 20.7963 19.8412 23.9102 16.0001 23.9102C12.1589 23.9102 9.04502 20.7963 9.04502 16.9552C9.04502 13.114 12.1589 10.0001 16.0001 10.0001C19.8412 10.0001 22.9551 13.114 22.9551 16.9552Z" fill="black" fill-opacity="0.8"/>
</svg>
