<svg width="32" height="32" viewBox="0 0 32 32" fill="none" xmlns="http://www.w3.org/2000/svg">
<path fill-rule="evenodd" clip-rule="evenodd" d="M23 16C23 19.866 19.866 23 16 23C12.134 23 9 19.866 9 16C9 12.134 12.134 9 16 9C19.866 9 23 12.134 23 16ZM24 16C24 20.4183 20.4183 24 16 24C11.5817 24 8 20.4183 8 16C8 11.5817 11.5817 8 16 8C20.4183 8 24 11.5817 24 16ZM11.5 16C11.5 15.8028 11.5127 15.6085 11.5374 15.4179L10.5457 15.2886C10.5156 15.5215 10.5 15.7589 10.5 16C10.5 19.0376 12.9624 21.5 16 21.5C16.241 21.5 16.4785 21.4845 16.7114 21.4544L16.582 20.4627C16.3914 20.4873 16.1973 20.5 16 20.5C13.5146 20.5 11.5 18.4853 11.5 16Z" fill="black" fill-opacity="0.8"/>
</svg>
