<svg width="32" height="32" viewBox="0 0 32 32" fill="none" xmlns="http://www.w3.org/2000/svg">
<path fill-rule="evenodd" clip-rule="evenodd" d="M23 16C23 19.866 19.866 23 16 23C12.134 23 9 19.866 9 16C9 12.134 12.134 9 16 9C19.866 9 23 12.134 23 16ZM24 16C24 20.4183 20.4183 24 16 24C11.5817 24 8 20.4183 8 16C8 11.5817 11.5817 8 16 8C20.4183 8 24 11.5817 24 16ZM11.5 15.9998C11.5 17.4523 12.188 18.744 13.2561 19.5668L12.6465 20.3595C11.3411 19.3538 10.5 17.775 10.5 15.9998C10.5 14.2246 11.3411 12.6458 12.6465 11.6401L13.2561 12.4328C12.188 13.2556 11.5 14.5473 11.5 15.9998Z" fill="black" fill-opacity="0.8"/>
</svg>
