<svg width="32" height="32" viewBox="0 0 32 32" fill="none" xmlns="http://www.w3.org/2000/svg">
<path fill-rule="evenodd" clip-rule="evenodd" d="M23 16C23 19.866 19.866 23 16 23C12.134 23 9 19.866 9 16C9 12.134 12.134 9 16 9C19.866 9 23 12.134 23 16ZM24 16C24 20.4183 20.4183 24 16 24C11.5817 24 8 20.4183 8 16C8 11.5817 11.5817 8 16 8C20.4183 8 24 11.5817 24 16ZM16 11.5C15.8027 11.5 15.6086 11.5127 15.418 11.5373L15.2886 10.5456C15.5215 10.5155 15.759 10.5 16 10.5C19.0376 10.5 21.5 12.9624 21.5 16C21.5 16.2411 21.4844 16.4785 21.4543 16.7114L20.4626 16.5821C20.4873 16.3915 20.5 16.1973 20.5 16C20.5 13.5147 18.4854 11.5 16 11.5Z" fill="black" fill-opacity="0.8"/>
</svg>
