<svg width="32" height="32" viewBox="0 0 32 32" fill="none" xmlns="http://www.w3.org/2000/svg">
<path fill-rule="evenodd" clip-rule="evenodd" d="M23 16C23 19.866 19.866 23 16 23C12.134 23 9 19.866 9 16C9 12.134 12.134 9 16 9C19.866 9 23 12.134 23 16ZM24 16C24 20.4183 20.4183 24 16 24C11.5817 24 8 20.4183 8 16C8 11.5817 11.5817 8 16 8C20.4183 8 24 11.5817 24 16ZM16 20.5C15.8027 20.5 15.6086 20.4873 15.418 20.4627L15.2886 21.4544C15.5215 21.4845 15.759 21.5 16 21.5C19.0376 21.5 21.5 19.0376 21.5 16C21.5 15.7589 21.4844 15.5215 21.4543 15.2886L20.4626 15.4179C20.4873 15.6085 20.5 15.8028 20.5 16C20.5 18.4853 18.4854 20.5 16 20.5Z" fill="black" fill-opacity="0.8"/>
</svg>
