<svg width="40" height="40" viewBox="0 0 40 40" fill="none" xmlns="http://www.w3.org/2000/svg">
<path d="M14.4387 19.2355L15.0667 18.9405L15.0101 18.249C15.0034 18.1671 15 18.084 15 18C15 16.3431 16.3431 15 18 15C19.2076 15 20.2507 15.7136 20.7266 16.7464L21.1628 17.693L22.0905 17.218C22.3622 17.0789 22.6704 17 23 17C24.1046 17 25 17.8954 25 19C25 19.0382 24.9989 19.0761 24.9969 19.1136L24.9552 19.8634L25.6636 20.1124C26.4434 20.3866 27 21.1296 27 22C27 23.1046 26.1046 24 25 24V25C26.6569 25 28 23.6569 28 22C28 20.692 27.163 19.5796 25.9953 19.1691C25.9984 19.1131 26 19.0567 26 19C26 17.3431 24.6569 16 23 16C22.5961 16 22.2108 16.0798 21.8591 16.2245C21.7827 16.256 21.7079 16.2905 21.6348 16.3279C21.5887 16.2278 21.5386 16.13 21.4847 16.0346C20.7981 14.8199 19.4948 14 18 14C15.7909 14 14 15.7909 14 18C14 18.1113 14.0045 18.2215 14.0135 18.3305C12.8237 18.8894 12 20.0985 12 21.5C12 23.2632 13.3039 24.7219 15 24.9646V23.95C13.8589 23.7184 13 22.7095 13 21.5C13 20.5005 13.5866 19.6359 14.4387 19.2355Z" fill="black" fill-opacity="0.8"/>
<path fill-rule="evenodd" clip-rule="evenodd" d="M20 20.7929L23.3536 24.1464L22.6464 24.8536L20.5 22.7071V28.5H19.5V22.7071L17.3536 24.8536L16.6464 24.1464L20 20.7929Z" fill="black" fill-opacity="0.8"/>
</svg>
