<svg width="40" height="40" viewBox="0 0 40 40" fill="none" xmlns="http://www.w3.org/2000/svg">
<path fill-rule="evenodd" clip-rule="evenodd" d="M11.6465 19.6543L11.293 20.0079L11.6465 20.3614L19.6465 28.3614L20.0001 28.715L20.3536 28.3614L24.3536 24.3614L24.7072 24.0079L24.0001 23.3008L23.6465 23.6543L20.0001 27.3008L12.7072 20.0079L20.0001 12.715L27.6465 20.3614L28.0001 20.715L28.7072 20.0079L28.3536 19.6543L20.3536 11.6543L20.0001 11.3008L19.6465 11.6543L11.6465 19.6543ZM20.8536 17.8614L19.2072 19.5079H21.5001C22.6868 19.5079 23.8468 19.8597 24.8335 20.519C25.8202 21.1783 26.5892 22.1154 27.0434 23.2118C27.4975 24.3081 27.6163 25.5145 27.3848 26.6784C27.1533 27.8423 26.5818 28.9114 25.7427 29.7505L25.0356 29.0434C25.7349 28.3441 26.2111 27.4532 26.404 26.4833C26.5969 25.5134 26.4979 24.5081 26.1195 23.5944C25.741 22.6808 25.1002 21.8999 24.2779 21.3505C23.4557 20.8011 22.489 20.5079 21.5001 20.5079H19.2072L20.8536 22.1543L20.1465 22.8614L17.6465 20.3614L17.293 20.0079L17.6465 19.6543L20.1465 17.1543L20.8536 17.8614Z" fill="black" fill-opacity="0.8"/>
</svg>
