<svg width="32" height="32" viewBox="0 0 32 32" fill="none" xmlns="http://www.w3.org/2000/svg">
<path fill-rule="evenodd" clip-rule="evenodd" d="M21 15.9001V17.0001C21 18.1047 21.8954 19.0001 23 19.0001V20.0001H22H10H9V19.0001C10.1046 19.0001 11 18.1047 11 17.0001V14.0001C11 11.4415 12.9218 9.33175 15.4007 9.03564C15.2556 9.37493 15.1469 9.73352 15.0796 10.1065C13.3141 10.5222 12 12.1077 12 14.0001V17.0001C12 17.7684 11.7111 18.4693 11.2361 19.0001H20.7639C20.2889 18.4693 20 17.7684 20 17.0001V16.0001C20.3425 16.0001 20.6769 15.9657 21 15.9001ZM14 21.0001C14 22.1047 14.8954 23.0001 16 23.0001C17.1046 23.0001 18 22.1047 18 21.0001H19C19 22.6569 17.6569 24.0001 16 24.0001C14.3431 24.0001 13 22.6569 13 21.0001H14Z" fill="black" fill-opacity="0.8"/>
<circle cx="20" cy="11" r="3" fill="#F24822"/>
</svg>
