<svg width="32" height="32" viewBox="0 0 32 32" fill="none" xmlns="http://www.w3.org/2000/svg">
<path fill-rule="evenodd" clip-rule="evenodd" d="M15.073 19.297C14.117 20.06 12.58 20.5 10 20.5C9.724 20.5 9.5 20.276 9.5 20C9.5 19.724 9.724 19.5 10 19.5C12.503 19.5 13.76 19.066 14.45 18.515C15.131 17.972 15.349 17.253 15.603 16.363L15.615 16.321C15.858 15.47 16.147 14.459 17.095 13.703C18.051 12.941 19.587 12.5 22.168 12.5C22.444 12.5 22.668 12.724 22.668 13C22.668 13.276 22.444 13.5 22.168 13.5C19.665 13.5 18.408 13.934 17.718 14.485C17.037 15.028 16.819 15.747 16.565 16.637L16.553 16.679C16.31 17.53 16.021 18.541 15.073 19.297Z" fill="black" fill-opacity="0.8"/>
</svg>
