<svg width="32" height="32" viewBox="0 0 32 32" fill="none" xmlns="http://www.w3.org/2000/svg">
<path fill-rule="evenodd" clip-rule="evenodd" d="M23 16C23 19.866 19.866 23 16 23C12.134 23 9 19.866 9 16C9 12.134 12.134 9 16 9C19.866 9 23 12.134 23 16ZM24 16C24 20.4183 20.4183 24 16 24C11.5817 24 8 20.4183 8 16C8 11.5817 11.5817 8 16 8C20.4183 8 24 11.5817 24 16ZM11.5 16C11.5 16.1973 11.5127 16.3915 11.5374 16.5821L10.5457 16.7114C10.5156 16.4786 10.5 16.2411 10.5 16C10.5 12.9624 12.9624 10.5 16 10.5C16.241 10.5 16.4785 10.5155 16.7114 10.5456L16.582 11.5373C16.3914 11.5127 16.1973 11.5 16 11.5C13.5146 11.5 11.5 13.5147 11.5 16Z" fill="black" fill-opacity="0.8"/>
</svg>
