<svg width="32" height="32" viewBox="0 0 32 32" fill="none" xmlns="http://www.w3.org/2000/svg">
<path fill-rule="evenodd" clip-rule="evenodd" d="M13 16C13 17.657 14.343 19 16 19C17.486 19 18.72 17.919 18.959 16.5H17C16.957 16.5 16.915 16.494 16.875 16.484C16.705 16.792 16.377 17 16 17C15.448 17 15 16.552 15 16C15 15.448 15.448 15 16 15C16.377 15 16.705 15.208 16.875 15.516C16.915 15.506 16.957 15.5 17 15.5H18.959C18.72 14.081 17.486 13 16 13C14.343 13 13 14.343 13 16ZM19.97 15.5C19.722 13.527 18.04 12 16 12C13.79 12 12 13.79 12 16C12 18.21 13.79 20 16 20C18.04 20 19.723 18.473 19.97 16.5H23.293L21.646 18.146C21.451 18.342 21.451 18.658 21.646 18.854C21.842 19.049 22.158 19.049 22.354 18.854L24.747 16.46C25.001 16.206 25.001 15.794 24.747 15.54L22.354 13.146C22.158 12.951 21.842 12.951 21.646 13.146C21.451 13.342 21.451 13.658 21.646 13.854L23.293 15.5H19.969H19.97Z" fill="black" fill-opacity="0.8"/>
</svg>
