<svg width="32" height="32" viewBox="0 0 32 32" fill="none" xmlns="http://www.w3.org/2000/svg">
<path fill-rule="evenodd" clip-rule="evenodd" d="M16 19C14.343 19 13 17.657 13 16C13 14.343 14.343 13 16 13C17.657 13 19 14.343 19 16C19 17.657 17.657 19 16 19ZM12 16C12 13.79 13.79 12 16 12C18.21 12 20 13.79 20 16C20 18.21 18.21 20 16 20C13.79 20 12 18.21 12 16ZM16 15C15.448 15 15 15.448 15 16C15 16.552 15.448 17 16 17C16.552 17 17 16.552 17 16C17 15.448 16.552 15 16 15Z" fill="black" fill-opacity="0.8"/>
</svg>
