<svg width="32" height="32" viewBox="0 0 32 32" fill="none" xmlns="http://www.w3.org/2000/svg">
<path fill-rule="evenodd" clip-rule="evenodd" d="M17.3522 10H22C22.5523 10 23 10.4477 23 11V21C23 21.5523 22.5523 22 22 22H18V19.7539C18.5693 19.6009 19.0251 19.393 19.3822 19.1787C19.7328 18.9683 19.9835 18.7548 20.1504 18.5878C20.2338 18.5044 20.2963 18.4327 20.3398 18.379C20.3616 18.3521 20.3786 18.3296 20.3912 18.3124C20.3975 18.3038 20.4027 18.2965 20.4069 18.2906L20.4122 18.2829L20.4143 18.2798L20.4152 18.2785L20.4156 18.2778C20.4158 18.2775 20.416 18.2773 20 17.9999C19.584 17.7226 19.5842 17.7223 19.5843 17.722L19.5847 17.7215L19.5853 17.7206L19.5863 17.7191L19.5872 17.7178C19.5874 17.7176 19.5866 17.7187 19.5848 17.7211C19.5813 17.7258 19.574 17.7356 19.5625 17.7498C19.5397 17.778 19.5005 17.8235 19.4433 17.8807C19.329 17.9951 19.1422 18.1565 18.8678 18.3212C18.6435 18.4557 18.3575 18.5944 18 18.7111V16.5V16H17.5H16.0136C16.0825 14.6846 16.403 13.2142 16.7324 12.0066C16.9169 11.3298 17.1016 10.7451 17.24 10.33C17.2822 10.2034 17.32 10.0926 17.3522 10ZM16.2959 10H10C9.44772 10 9 10.4477 9 11V21C9 21.5523 9.44772 22 10 22H17V19.9434C16.6912 19.9796 16.3583 19.9999 16 19.9999C14.4121 19.9999 13.3228 19.6017 12.6178 19.1787C12.2672 18.9683 12.0165 18.7548 11.8496 18.5878C11.7662 18.5044 11.7037 18.4327 11.6602 18.379C11.6384 18.3521 11.6214 18.3296 11.6088 18.3124C11.6025 18.3038 11.5973 18.2965 11.5931 18.2906L11.5878 18.2829L11.5857 18.2798L11.5848 18.2785L11.5844 18.2778C11.5842 18.2775 11.584 18.2773 12 17.9999C12.416 17.7226 12.4158 17.7223 12.4157 17.722L12.4153 17.7215L12.4147 17.7206L12.4137 17.7191L12.4128 17.7178C12.4126 17.7176 12.4134 17.7187 12.4152 17.7211C12.4187 17.7258 12.426 17.7356 12.4375 17.7498C12.4603 17.778 12.4995 17.8235 12.5567 17.8807C12.671 17.9951 12.8578 18.1565 13.1322 18.3212C13.6772 18.6481 14.5879 18.9999 16 18.9999C16.3663 18.9999 16.6988 18.9762 17 18.9355V17H15.5H15V16.5C15 14.932 15.3894 13.1302 15.7676 11.7434C15.9581 11.0452 16.1484 10.4424 16.2913 10.0138C16.2928 10.0092 16.2943 10.0046 16.2959 10ZM8 11C8 9.89543 8.89543 9 10 9H22C23.1046 9 24 9.89543 24 11V21C24 22.1046 23.1046 23 22 23H10C8.89543 23 8 22.1046 8 21V11ZM19 15V13H20V15H19ZM12 13V15H13V13H12Z" fill="black" fill-opacity="0.8"/>
</svg>
