<svg width="32" height="32" viewBox="0 0 32 32" fill="none" xmlns="http://www.w3.org/2000/svg">
<rect x="6" y="8" width="19" height="16" rx="4" fill="#FFEB00"/>
<path fill-rule="evenodd" clip-rule="evenodd" d="M20.0635 17.6992H19.0004C19.0004 16.1738 19.2686 15.679 20.1497 15.2098C20.6434 14.9468 21.0547 14.5859 21.0547 14.0078C21.0547 13.3164 20.6406 12.875 19.8516 12.875C19.0625 12.875 18.6356 13.1797 18.5887 14.0078H17.4968C17.5476 12.6016 18.3492 11.8906 19.8516 11.8906C21.3539 11.8906 22.1262 12.7383 22.1262 14.0078C22.1262 14.8633 21.6087 15.5584 20.9077 16C20.1783 16.4596 20.0635 16.5604 20.0635 17.6992ZM20.2872 19.2579C20.2872 19.6915 19.9318 20.0392 19.506 20.0392C19.0763 20.0392 18.7247 19.6915 18.7247 19.2579C18.7247 18.8321 19.0763 18.4806 19.506 18.4806C19.9318 18.4806 20.2872 18.8321 20.2872 19.2579ZM9.02686 20L12.138 12H13.1694L16.2805 20H15.2612L14.4737 17.975L10.8337 17.975L10.0462 20H9.02686ZM12.6537 13.2949L14.1043 17.025L11.2031 17.025L12.6537 13.2949Z" fill="black"/>
</svg>
