<svg width="16" height="16" viewBox="0 0 16 16" fill="none" xmlns="http://www.w3.org/2000/svg">
<path fill-rule="evenodd" clip-rule="evenodd" d="M8.35363 2.64652L8.00008 2.29297L7.64652 2.64652L5.64652 4.64652L6.35363 5.35363L7.50008 4.20718V7.50008L4.20718 7.50008L5.35363 6.35363L4.64652 5.64652L2.64652 7.64652L2.29297 8.00008L2.64652 8.35363L4.64652 10.3536L5.35363 9.64652L4.20718 8.50008L7.50008 8.50008V11.793L6.35363 10.6465L5.64652 11.3536L7.64652 13.3536L8.00008 13.7072L8.35363 13.3536L10.3536 11.3536L9.64652 10.6465L8.50008 11.793V8.50008L11.793 8.50008L10.6465 9.64652L11.3536 10.3536L13.3536 8.35363L13.7072 8.00008L13.3536 7.64652L11.3536 5.64652L10.6465 6.35363L11.793 7.50008L8.50008 7.50008V4.20718L9.64652 5.35363L10.3536 4.64652L8.35363 2.64652Z" fill="black" fill-opacity="0.8"/>
</svg>
