<svg width="16" height="16" viewBox="0 0 16 16" fill="none" xmlns="http://www.w3.org/2000/svg">
<path d="M1.85995 12.4999L2.73795 10.0279H6.26595L7.14395 12.4999H8.25195L5.04795 3.77295H3.95695L0.751953 12.4999H1.85995ZM3.06995 9.08995L4.46795 5.15295H4.53595L5.93395 9.09095H3.06995V9.08995ZM13.726 7.52495H14.851C14.606 6.10795 13.395 5.12795 11.826 5.12795C9.94395 5.12795 8.56995 6.54495 8.56995 8.86795C8.56995 11.1679 9.90495 12.5989 11.876 12.5989C13.64 12.5989 14.901 11.4419 14.901 9.60595V8.77795H12.043V9.68395H13.839C13.815 10.8559 13.04 11.5979 11.876 11.5979C10.594 11.5979 9.65995 10.6279 9.65995 8.85995C9.65995 7.09895 10.6 6.12995 11.833 6.12995C12.799 6.12995 13.453 6.66195 13.726 7.52495Z" fill="black" fill-opacity="0.8"/>
</svg>
