<svg width="40" height="40" viewBox="0 0 40 40" fill="none" xmlns="http://www.w3.org/2000/svg">
<path fill-rule="evenodd" clip-rule="evenodd" d="M14.5 16C15.3284 16 16 15.3284 16 14.5C16 13.6716 15.3284 13 14.5 13C13.6716 13 13 13.6716 13 14.5C13 15.3284 13.6716 16 14.5 16ZM15 17V16.95C15.9796 16.7511 16.7511 15.9796 16.95 15H17H23H23.05C23.2488 15.9796 24.0204 16.7511 25 16.95V17V23V23.05C24.0204 23.2488 23.2488 24.0204 23.05 25H23H17H16.95C16.7511 24.0204 15.9796 23.2488 15 23.05V23V17ZM14 23.05V23V17V16.95C12.8589 16.7184 12 15.7095 12 14.5C12 13.1193 13.1193 12 14.5 12C15.7095 12 16.7184 12.8589 16.95 14H17H23H23.05C23.2816 12.8589 24.2905 12 25.5 12C26.8807 12 28 13.1193 28 14.5C28 15.7095 27.1411 16.7184 26 16.95V17V23V23.05C27.1411 23.2816 28 24.2905 28 25.5C28 26.8807 26.8807 28 25.5 28C24.2905 28 23.2816 27.1411 23.05 26H23H17H16.95C16.7184 27.1411 15.7095 28 14.5 28C13.1193 28 12 26.8807 12 25.5C12 24.2905 12.8589 23.2816 14 23.05ZM27 14.5C27 15.3284 26.3284 16 25.5 16C24.6716 16 24 15.3284 24 14.5C24 13.6716 24.6716 13 25.5 13C26.3284 13 27 13.6716 27 14.5ZM25.5 27C26.3284 27 27 26.3284 27 25.5C27 24.6716 26.3284 24 25.5 24C24.6716 24 24 24.6716 24 25.5C24 26.3284 24.6716 27 25.5 27ZM16 25.5C16 26.3284 15.3284 27 14.5 27C13.6716 27 13 26.3284 13 25.5C13 24.6716 13.6716 24 14.5 24C15.3284 24 16 24.6716 16 25.5Z" fill="black" fill-opacity="0.8"/>
</svg>
