<svg width="40" height="40" viewBox="0 0 40 40" fill="none" xmlns="http://www.w3.org/2000/svg">
<path fill-rule="evenodd" clip-rule="evenodd" d="M17.4593 25.3189L20.1109 22.6673L20.818 23.3744L18.1664 26.026C16.8972 27.2952 14.8394 27.2952 13.5702 26.026C12.301 24.7568 12.301 22.699 13.5702 21.4298L16.2218 18.7782L16.9289 19.4853L14.2773 22.1369C13.3986 23.0156 13.3986 24.4402 14.2773 25.3189C15.156 26.1976 16.5806 26.1976 17.4593 25.3189ZM23.6464 20.5459L22.9393 19.8388L25.591 17.1872C26.4697 16.3085 26.4697 14.8839 25.591 14.0052C24.7123 13.1265 23.2877 13.1265 22.409 14.0052L19.7574 16.6569L19.0503 15.9497L21.7019 13.2981C22.9711 12.0289 25.0289 12.0289 26.2981 13.2981C27.5673 14.5673 27.5673 16.6251 26.2981 17.8943L23.6464 20.5459ZM18.1958 22.1664L22.4385 17.9238L21.6724 17.1577L17.4298 21.4004L18.1958 22.1664Z" fill="black" fill-opacity="0.8"/>
</svg>
